# xmcd
#
# Track frame offsets:
# 150
# 15717
# 34092
# 50458
# 68334
# 84668
# 101483
# 119368
# 136552
# 152779
# 181870
# 197560
#
# Disc length: 2893 seconds
#
#
# Revision: 0
# Processed by: cddbd v1.5PL3 Copyright (c) Steve Scherf et al.
# Submitted via: FreeRIP 2.60 
#
DISCID=8e0b4b0c
DTITLE=SHeDAISY - Sweet Right Here
DYEAR=2004
DGENRE=Country
TTITLE0=Passenger Seat
TTITLE1=Come Home Soon
TTITLE2=Don't Worry 'Bout A Thing
TTITLE3=5 4 3 2 Run
TTITLE4=I Dare You
TTITLE5=Without A Sound
TTITLE6=He's A Hero
TTITLE7=360 Degrees Of You
TTITLE8=Borrowed Home
TTITLE9=A Woman's Work
TTITLE10=Good Together (Bucket And Chicken)
TTITLE11=Love Goes On
EXTD=
EXTT0=
EXTT1=
EXTT2=
EXTT3=
EXTT4=
EXTT5=
EXTT6=
EXTT7=
EXTT8=
EXTT9=
EXTT10=
EXTT11=
PLAYORDER=
